HIERARCHY
ROOT pelvis
{
	OFFSET 0.003123 -0.351407 0.012037
	CHANNELS 6 Xposition Yposition Zposition Zrotation Yrotation Xrotation 
	JOINT left_hip
	{
		OFFSET 0.058189 -0.092763 -0.026001
		CHANNELS 3 Zrotation Yrotation Xrotation
		JOINT left_knee
		{
			OFFSET 0.054695 -0.378753 -0.009396
			CHANNELS 3 Zrotation Yrotation Xrotation
			JOINT left_ankle
			{
				OFFSET -0.043453 -0.403059 -0.031876
				CHANNELS 3 Zrotation Yrotation Xrotation
				JOINT left_foot
				{
					OFFSET 0.047257 -0.057997 0.118216
					CHANNELS 3 Zrotation Yrotation Xrotation
					End Site
					{
						OFFSET 0.000000 0.000000 0.000000
					}
				}
			}
		}
	}
	JOINT right_hip
	{
		OFFSET -0.063267 -0.103908 -0.021250
		CHANNELS 3 Zrotation Yrotation Xrotation
		JOINT right_knee
		{
			OFFSET -0.044210 -0.362380 -0.016824
			CHANNELS 3 Zrotation Yrotation Xrotation
			JOINT right_ankle
			{
				OFFSET 0.015417 -0.410728 -0.020192
				CHANNELS 3 Zrotation Yrotation Xrotation
				JOINT right_foot
				{
					OFFSET -0.038812 -0.058328 0.119049
					CHANNELS 3 Zrotation Yrotation Xrotation
					End Site
					{
						OFFSET 0.000000 0.000000 0.000000
					}
				}
			}
		}
	}
	JOINT spine_1
	{
		OFFSET -0.002763 0.109891 -0.027618
		CHANNELS 3 Zrotation Yrotation Xrotation
		JOINT spine_2
		{
			OFFSET 0.009448 0.131853 -0.005940
			CHANNELS 3 Zrotation Yrotation Xrotation
			JOINT spine_3
			{
				OFFSET -0.011330 0.052235 0.028447
				CHANNELS 3 Zrotation Yrotation Xrotation
				JOINT neck
				{
					OFFSET -0.012164 0.165167 -0.031615
					CHANNELS 3 Zrotation Yrotation Xrotation
					JOINT head
					{
						OFFSET 0.024783 0.160452 0.020737
						CHANNELS 3 Zrotation Yrotation Xrotation
						End Site
						{
							OFFSET 0.000000 0.000000 0.000000
						}
					}
				}
				JOINT left_collar
				{
					OFFSET 0.046364 0.084944 -0.007220
					CHANNELS 3 Zrotation Yrotation Xrotation
					JOINT left_shoulder
					{
						OFFSET 0.119239 0.057728 -0.015461
						CHANNELS 3 Zrotation Yrotation Xrotation
						JOINT left_elbow
						{
							OFFSET 0.254123 -0.072151 -0.042459
							CHANNELS 3 Zrotation Yrotation Xrotation
							JOINT left_wrist
							{
								OFFSET 0.251987 0.023221 -0.002472
								CHANNELS 3 Zrotation Yrotation Xrotation
								JOINT left_index_1
								{
									OFFSET 0.101902 -0.008688 0.019351
									CHANNELS 3 Zrotation Yrotation Xrotation
									JOINT left_index_2
									{
										OFFSET 0.030149 -0.011154 0.001151
										CHANNELS 3 Zrotation Yrotation Xrotation
										JOINT left_index_3
										{
											OFFSET 0.006504 -0.021577 -0.002433
											CHANNELS 3 Zrotation Yrotation Xrotation
											End Site
											{
												OFFSET 0.000000 0.000000 0.000000
											}
										}
									}
								}
								JOINT left_middle_1
								{
									OFFSET 0.109398 -0.006328 -0.003981
									CHANNELS 3 Zrotation Yrotation Xrotation
									JOINT left_middle_2
									{
										OFFSET 0.026472 -0.015218 -0.004641
										CHANNELS 3 Zrotation Yrotation Xrotation
										JOINT left_middle_3
										{
											OFFSET 0.005022 -0.023347 -0.001911
											CHANNELS 3 Zrotation Yrotation Xrotation
											End Site
											{
												OFFSET 0.000000 0.000000 0.000000
											}
										}
									}
								}
								JOINT left_pinky_1
								{
									OFFSET 0.084047 -0.014539 -0.043750
									CHANNELS 3 Zrotation Yrotation Xrotation
									JOINT left_pinky_2
									{
										OFFSET 0.012124 -0.014448 -0.005375
										CHANNELS 3 Zrotation Yrotation Xrotation
										JOINT left_pinky_3
										{
											OFFSET 0.003798 -0.018853 0.000167
											CHANNELS 3 Zrotation Yrotation Xrotation
											End Site
											{
												OFFSET 0.000000 0.000000 0.000000
											}
										}
									}
								}
								JOINT left_ring_1
								{
									OFFSET 0.097444 -0.009268 -0.027345
									CHANNELS 3 Zrotation Yrotation Xrotation
									JOINT left_ring_2
									{
										OFFSET 0.023561 -0.016057 -0.001895
										CHANNELS 3 Zrotation Yrotation Xrotation
										JOINT left_ring_3
										{
											OFFSET 0.004257 -0.023548 0.000814
											CHANNELS 3 Zrotation Yrotation Xrotation
											End Site
											{
												OFFSET 0.000000 0.000000 0.000000
											}
										}
									}
								}
								JOINT left_thumb_1
								{
									OFFSET 0.040636 -0.017977 0.025611
									CHANNELS 3 Zrotation Yrotation Xrotation
									JOINT left_thumb_2
									{
										OFFSET 0.021637 -0.017639 0.011623
										CHANNELS 3 Zrotation Yrotation Xrotation
										JOINT left_thumb_3
										{
											OFFSET 0.024002 -0.008356 0.006548
											CHANNELS 3 Zrotation Yrotation Xrotation
											End Site
											{
												OFFSET 0.000000 0.000000 0.000000
											}
										}
									}
								}
							}
						}
					}
				}
				JOINT right_collar
				{
					OFFSET -0.047695 0.084339 -0.013400
					CHANNELS 3 Zrotation Yrotation Xrotation
					JOINT right_shoulder
					{
						OFFSET -0.102578 0.053524 -0.012669
						CHANNELS 3 Zrotation Yrotation Xrotation
						JOINT right_elbow
						{
							OFFSET -0.271150 -0.036492 -0.026467
							CHANNELS 3 Zrotation Yrotation Xrotation
							JOINT right_wrist
							{
								OFFSET -0.249267 -0.004533 -0.015325
								CHANNELS 3 Zrotation Yrotation Xrotation
								JOINT right_index_1
								{
									OFFSET -0.099881 -0.011783 0.019600
									CHANNELS 3 Zrotation Yrotation Xrotation
									JOINT right_index_2
									{
										OFFSET -0.030148 -0.011154 0.001151
										CHANNELS 3 Zrotation Yrotation Xrotation
										JOINT right_index_3
										{
											OFFSET -0.006505 -0.021577 -0.002432
											CHANNELS 3 Zrotation Yrotation Xrotation
											End Site
											{
												OFFSET 0.000000 0.000000 0.000000
											}
										}
									}
								}
								JOINT right_middle_1
								{
									OFFSET -0.107376 -0.009422 -0.003734
									CHANNELS 3 Zrotation Yrotation Xrotation
									JOINT right_middle_2
									{
										OFFSET -0.026472 -0.015218 -0.004641
										CHANNELS 3 Zrotation Yrotation Xrotation
										JOINT right_middle_3
										{
											OFFSET -0.005022 -0.023347 -0.001911
											CHANNELS 3 Zrotation Yrotation Xrotation
											End Site
											{
												OFFSET 0.000000 0.000000 0.000000
											}
										}
									}
								}
								JOINT right_pinky_1
								{
									OFFSET -0.082027 -0.017634 -0.043503
									CHANNELS 3 Zrotation Yrotation Xrotation
									JOINT right_pinky_2
									{
										OFFSET -0.012123 -0.014448 -0.005374
										CHANNELS 3 Zrotation Yrotation Xrotation
										JOINT right_pinky_3
										{
											OFFSET -0.003798 -0.018852 0.000167
											CHANNELS 3 Zrotation Yrotation Xrotation
											End Site
											{
												OFFSET 0.000000 0.000000 0.000000
											}
										}
									}
								}
								JOINT right_ring_1
								{
									OFFSET -0.095423 -0.012362 -0.027099
									CHANNELS 3 Zrotation Yrotation Xrotation
									JOINT right_ring_2
									{
										OFFSET -0.023561 -0.016057 -0.001895
										CHANNELS 3 Zrotation Yrotation Xrotation
										JOINT right_ring_3
										{
											OFFSET -0.004257 -0.023548 0.000816
											CHANNELS 3 Zrotation Yrotation Xrotation
											End Site
											{
												OFFSET 0.000000 0.000000 0.000000
											}
										}
									}
								}
								JOINT right_thumb_1
								{
									OFFSET -0.038613 -0.021074 0.025861
									CHANNELS 3 Zrotation Yrotation Xrotation
									JOINT right_thumb_2
									{
										OFFSET -0.021636 -0.017639 0.011623
										CHANNELS 3 Zrotation Yrotation Xrotation
										JOINT right_thumb_3
										{
											OFFSET -0.024004 -0.008353 0.006547
											CHANNELS 3 Zrotation Yrotation Xrotation
											End Site
											{
												OFFSET 0.000000 0.000000 0.000000
											}
										}
									}
								}
							}
						}
					}
				}
			}
		}
	}
}
MOTION
Frames: 4
Frame Time: 0.050000
0.102259 0.929819 0.270834 -2.233435 -7.154367 5.406139 11.379327 -0.587936 -16.954467 -0.272227 0.975125 -8.642806 2.145723 18.804221 35.937907 0.000000 0.000000 0.000000 -4.787211 -0.433225 11.148240 6.026508 -0.188350 1.197815 -4.862188 -6.215837 -5.379959 0.000000 0.000000 0.000000 4.617181 -0.237698 3.224224 -6.828431 -5.205617 -33.253747 12.027105 6.453201 42.539959 5.472577 5.281363 -34.906781 0.000000 0.000000 0.000000 9.867314 10.932403 -3.578341 -82.039151 -8.594000 -11.193071 -20.606733 0.124502 -0.320204 -1.140588 -0.674231 -4.016744 4.474790 -0.546384 -0.339575 -5.074293 -0.799568 -3.269576 0.000000 0.000000 0.000000 2.239333 1.930316 1.588579 -1.679616 -1.036725 -4.093849 0.000000 0.000000 0.000000 -3.726116 1.316926 0.598066 8.096706 -1.613943 -5.750668 0.000000 0.000000 0.000000 -1.979236 1.535868 1.038665 2.622879 -1.181310 -5.517357 0.000000 0.000000 0.000000 -1.047906 -7.292976 -4.027412 4.562140 5.243513 1.410389 0.000000 0.000000 0.000000 -9.200699 3.939894 2.080476 60.644830 34.412282 7.816754 14.963569 55.222303 7.420423 -0.188990 -3.655452 9.448594 1.421356 1.920244 -0.707095 -16.419612 2.280808 -0.420063 0.000000 0.000000 0.000000 -2.895457 2.728886 -1.137099 -12.261385 0.911397 4.077964 0.000000 0.000000 0.000000 -14.888319 5.348179 0.700673 1.446420 -0.811919 5.092123 0.000000 0.000000 0.000000 -6.417247 1.012792 -0.139506 -7.819444 -0.216098 1.778605 0.000000 0.000000 0.000000 -0.821484 -2.345956 1.706015 5.416161 6.420089 -0.204412 0.000000 0.000000 0.000000 
0.102259 0.936427 0.294179 -3.053329 -6.139454 5.047318 11.604645 -0.595923 -16.218790 -0.468552 0.690209 -6.103785 2.635781 18.382041 32.244391 0.000000 0.000000 0.000000 -4.633202 -0.467904 10.713611 7.999140 -0.455385 7.599603 -4.425189 -6.222505 -4.089941 0.000000 0.000000 0.000000 4.094463 -0.210033 2.981614 -6.944344 -5.217628 -33.506337 12.608039 5.596015 42.756378 5.837345 5.370675 -35.317312 0.000000 0.000000 0.000000 10.055537 9.996419 -3.154145 -81.259748 -9.217798 -10.928517 -22.686082 -0.778417 -0.042562 -0.069922 -0.483728 -3.500749 1.331112 -1.093792 -0.410330 -5.272566 0.384590 0.446986 0.000000 0.000000 0.000000 0.684120 2.649116 1.690351 -0.846824 -0.998863 -4.182424 0.000000 0.000000 0.000000 -5.916771 3.622025 2.695994 10.249393 -1.917574 -7.268139 0.000000 0.000000 0.000000 -1.356251 2.234108 1.578389 -0.662086 -1.836480 -6.710227 0.000000 0.000000 0.000000 -2.833313 -7.438312 -2.993401 4.490737 6.321644 1.929243 0.000000 0.000000 0.000000 -8.729995 3.513245 1.886466 55.200193 39.725266 8.707429 2.434565 61.321084 1.588496 0.124427 -3.421863 8.421207 0.542656 2.201151 -0.856019 -16.789484 2.241587 -0.167235 0.000000 0.000000 0.000000 -4.374826 3.555341 -1.442182 -12.186474 0.732223 5.269201 0.000000 0.000000 0.000000 -16.729688 6.502696 -0.252551 0.357994 -1.015640 6.288255 0.000000 0.000000 0.000000 -7.160469 1.633006 -0.555466 -9.331952 -0.331700 2.954003 0.000000 0.000000 0.000000 -1.539755 -3.367735 2.287450 5.386736 7.244940 -0.476186 0.000000 0.000000 0.000000 
0.099432 0.943196 0.320000 -3.964662 -2.966953 4.460519 11.161510 -0.850874 -16.494055 0.239402 0.154109 -1.592770 2.578367 17.089648 26.471399 0.000000 0.000000 0.000000 -3.714245 -0.608828 9.506593 9.719633 -1.008811 14.861146 -3.849158 -8.573555 1.988969 0.000000 0.000000 0.000000 3.807559 -0.212401 3.081904 -7.099471 -5.347066 -34.490619 13.267417 4.284111 43.476478 6.730309 5.371489 -35.822977 0.000000 0.000000 0.000000 10.723863 8.465105 -2.298031 -81.307653 -11.435665 -10.633937 -23.673205 -1.419783 0.184033 -0.800021 0.705225 0.675269 2.467343 -1.358357 -0.595009 -6.183494 0.609181 0.309505 0.000000 0.000000 0.000000 1.837689 1.492318 1.230402 -3.011934 -0.599088 -2.956353 0.000000 0.000000 0.000000 -1.758508 1.525900 1.284454 2.167296 -0.920042 -3.577117 0.000000 0.000000 0.000000 -0.301682 1.133636 0.800698 -2.412738 -1.078522 -3.798161 0.000000 0.000000 0.000000 -2.273826 -6.157445 -3.044166 3.750842 3.666063 0.594178 0.000000 0.000000 0.000000 -8.412890 2.643013 1.378825 46.504802 44.008970 8.060712 -16.334318 64.955105 -9.500572 -0.740453 -2.847237 6.881159 1.990049 2.507934 -0.860892 -19.771157 2.593045 -0.751198 0.000000 0.000000 0.000000 -2.865855 4.609316 -2.290292 -15.796332 1.053087 7.045575 0.000000 0.000000 0.000000 -19.548729 7.454249 -0.756810 1.108564 -1.339463 7.338952 0.000000 0.000000 0.000000 -6.599607 2.283908 -1.104817 -12.221992 -0.406025 3.717436 0.000000 0.000000 0.000000 -1.422218 -3.561328 2.439166 6.852017 8.061700 -0.260830 0.000000 0.000000 0.000000 
0.098019 0.949804 0.345737 -4.816043 -0.254396 4.155043 11.243562 -0.977249 -15.901536 -0.088105 -0.045129 0.490519 3.167301 16.985264 22.830200 0.000000 0.000000 0.000000 -3.271760 -0.319568 5.198464 11.819273 -2.106232 23.846510 -3.767916 -12.915635 13.619241 0.000000 0.000000 0.000000 3.835141 -0.228370 3.309105 -7.103015 -5.439062 -35.071775 13.638346 3.427402 43.686263 7.800654 5.427827 -36.481657 0.000000 0.000000 0.000000 11.164078 6.452361 -1.291005 -81.454624 -13.935643 -10.193671 -23.538247 -2.725994 0.609572 -0.224302 1.159507 3.538518 2.147416 -1.215625 -0.547435 -6.814620 1.050198 0.969971 0.000000 0.000000 0.000000 1.620034 1.543421 1.208045 -2.462938 -0.300826 -1.977349 0.000000 0.000000 0.000000 -1.389242 2.993572 3.036417 3.333883 -1.342473 -6.597339 0.000000 0.000000 0.000000 0.255571 2.095925 1.493837 -1.124950 -0.856381 -3.845830 0.000000 0.000000 0.000000 -4.284614 -5.704146 -1.823377 5.724439 4.484325 0.338875 0.000000 0.000000 0.000000 -7.885899 1.773634 0.882508 33.678689 49.187152 5.359263 -35.440433 60.195461 -19.227280 -1.299169 -1.678911 3.632595 1.274385 1.733177 -0.576754 -22.147644 2.731331 -1.840692 0.000000 0.000000 0.000000 -5.140973 4.005748 -1.617953 -16.280347 1.071400 5.198889 0.000000 0.000000 0.000000 -18.067761 7.183642 -1.675700 -3.194450 -1.294294 7.853622 0.000000 0.000000 0.000000 -7.633297 1.403416 -0.434706 -14.718185 -0.501393 2.407984 0.000000 0.000000 0.000000 -4.598756 -4.711863 1.773394 10.206769 7.579187 0.871201 0.000000 0.000000 0.000000 
